# xmcd
#
# Track frame offsets:
#	150
#	20591
#	43995
#	65124
#	83680
#	101152
#	123574
#	138760
#	170520
#	195034
#
# Disc length: 2953 seconds
#
# Revision: 1
# Processed by: cddbd v1.5.2PL0 Copyright (c) Steve Scherf et al.
# Submitted via: EZCDAudioConverter 8.0.2.1
#
DISCID=860b870a
DTITLE=Ngọc Sơn - Chuyện Hợp Tan
DYEAR=2008
DGENRE=East Asia
TTITLE0=Tình có như không
TTITLE1=Chuyện Hợp Tan
TTITLE2=Huyền thoại một loài hoa
TTITLE3=Phượng buồn
TTITLE4=Mơ hoa
TTITLE5=Nỗi buồn hoa phượng
TTITLE6=Có nhớ đêm nào
TTITLE7=Lối thu xưa
TTITLE8=Nắng chiều
TTITLE9=Cho dù có đi nơi đâu
EXTD=
EXTT0=
EXTT1=
EXTT2=
EXTT3=
EXTT4=
EXTT5=
EXTT6=
EXTT7=
EXTT8=
EXTT9=
PLAYORDER=
